HIERARCHY
ROOT hip
{
  OFFSET 0 0 0
  CHANNELS 6 Xposition Yposition Zposition Zrotation Yrotation Xrotation
  JOINT abdomen
  {
    OFFSET 0 20.6881 -0.73152
    CHANNELS 3 Zrotation Xrotation Yrotation
    JOINT chest
    {
      OFFSET 0 11.7043 -0.48768
      CHANNELS 3 Zrotation Xrotation Yrotation
      JOINT neck
      {
        OFFSET 0 22.1894 -2.19456
        CHANNELS 3 Zrotation Xrotation Yrotation
        JOINT head
        {
          OFFSET -0.24384 7.07133 1.2192
          CHANNELS 3 Zrotation Xrotation Yrotation
          JOINT leftEye
          {
            OFFSET 4.14528 8.04674 8.04672
            CHANNELS 3 Zrotation Xrotation Yrotation
            End Site
            {
              OFFSET 1 0 0
            }
          }
          JOINT rightEye
          {
            OFFSET -3.6576 8.04674 8.04672
            CHANNELS 3 Zrotation Xrotation Yrotation
            End Site
            {
              OFFSET 1 0 0
            }
          }
        }
      }
      JOINT rCollar
      {
        OFFSET -2.68224 19.2634 -4.8768
        CHANNELS 3 Zrotation Xrotation Yrotation
        JOINT rShldr
        {
          OFFSET -8.77824 -1.95073 1.46304
          CHANNELS 3 Zrotation Xrotation Yrotation
          JOINT rForeArm
          {
            OFFSET -28.1742 -1.7115 0.48768
            CHANNELS 3 Zrotation Xrotation Yrotation
            JOINT rHand
            {
              OFFSET -22.5879 0.773209 7.07136
              CHANNELS 3 Zrotation Xrotation Yrotation
              JOINT rThumb1
              {
                OFFSET -1.2192 -0.487915 3.41376
                CHANNELS 3 Zrotation Xrotation Yrotation
                JOINT rThumb2
                {
                  OFFSET -3.37035 -0.52449 3.41376
                  CHANNELS 3 Zrotation Xrotation Yrotation
                  End Site
                  {
                    OFFSET -1.78271 -1.18214 1.43049
                  }
                }
              }
              JOINT rIndex1
              {
                OFFSET -7.75947 0.938293 5.60832
                CHANNELS 3 Zrotation Xrotation Yrotation
                JOINT rIndex2
                {
                  OFFSET -2.54057 -0.884171 1.56538
                  CHANNELS 3 Zrotation Xrotation Yrotation
                  End Site
                  {
                    OFFSET -1.62519 -0.234802 1.16502
                  }
                }
              }
              JOINT rMid1
              {
                OFFSET -8.24714 1.18213 3.41376
                CHANNELS 3 Zrotation Xrotation Yrotation
                JOINT rMid2
                {
                  OFFSET -3.10165 -0.590103 1.0647
                  CHANNELS 3 Zrotation Xrotation Yrotation
                  End Site
                  {
                    OFFSET -2.48547 -0.328903 0.83742
                  }
                }
              }
              JOINT rRing1
              {
                OFFSET -8.82822 0.546677 1.51678
                CHANNELS 3 Zrotation Xrotation Yrotation
                JOINT rRing2
                {
                  OFFSET -2.60934 -0.819778 -0.0198488
                  CHANNELS 3 Zrotation Xrotation Yrotation
                  End Site
                  {
                    OFFSET -2.33842 -0.294052 0.168128
                  }
                }
              }
              JOINT rPinky1
              {
                OFFSET -8.27202 -0.0477905 -0.4584
                CHANNELS 3 Zrotation Xrotation Yrotation
                JOINT rPinky2
                {
                  OFFSET -1.82734 -0.647385 -0.700984
                  CHANNELS 3 Zrotation Xrotation Yrotation
                  End Site
                  {
                    OFFSET -1.69225 -0.51767 -0.607171
                  }
                }
              }
            }
          }
        }
      }
      JOINT lCollar
      {
        OFFSET 2.68224 19.2634 -4.8768
        CHANNELS 3 Zrotation Xrotation Yrotation
        JOINT lShldr
        {
          OFFSET 8.77824 -1.95073 1.46304
          CHANNELS 3 Zrotation Xrotation Yrotation
          JOINT lForeArm
          {
            OFFSET 28.1742 -1.7115 0.48768
            CHANNELS 3 Zrotation Xrotation Yrotation
            JOINT lHand
            {
              OFFSET 22.5879 0.773209 7.07136
              CHANNELS 3 Zrotation Xrotation Yrotation
              JOINT lThumb1
              {
                OFFSET 1.2192 -0.487915 3.41376
                CHANNELS 3 Zrotation Xrotation Yrotation
                JOINT lThumb2
                {
                  OFFSET 3.37035 -0.52449 3.41376
                  CHANNELS 3 Zrotation Xrotation Yrotation
                  End Site
                  {
                    OFFSET 1.78271 -1.18214 1.43049
                  }
                }
              }
              JOINT lIndex1
              {
                OFFSET 7.75947 0.938293 5.60832
                CHANNELS 3 Zrotation Xrotation Yrotation
                JOINT lIndex2
                {
                  OFFSET 2.54057 -0.884171 1.56538
                  CHANNELS 3 Zrotation Xrotation Yrotation
                  End Site
                  {
                    OFFSET 1.62519 -0.234802 1.16502
                  }
                }
              }
              JOINT lMid1
              {
                OFFSET 8.24714 1.18213 3.41376
                CHANNELS 3 Zrotation Xrotation Yrotation
                JOINT lMid2
                {
                  OFFSET 3.10165 -0.590103 1.0647
                  CHANNELS 3 Zrotation Xrotation Yrotation
                  End Site
                  {
                    OFFSET 2.48547 -0.328903 0.83742
                  }
                }
              }
              JOINT lRing1
              {
                OFFSET 8.82822 0.546677 1.51678
                CHANNELS 3 Zrotation Xrotation Yrotation
                JOINT lRing2
                {
                  OFFSET 2.60934 -0.819778 -0.0198488
                  CHANNELS 3 Zrotation Xrotation Yrotation
                  End Site
                  {
                    OFFSET 2.33842 -0.294052 0.168128
                  }
                }
              }
              JOINT lPinky1
              {
                OFFSET 8.27202 -0.0477905 -0.4584
                CHANNELS 3 Zrotation Xrotation Yrotation
                JOINT lPinky2
                {
                  OFFSET 1.82734 -0.647385 -0.700984
                  CHANNELS 3 Zrotation Xrotation Yrotation
                  End Site
                  {
                    OFFSET 1.69225 -0.51767 -0.607171
                  }
                }
              }
            }
          }
        }
      }
    }
  }
  JOINT rButtock
  {
    OFFSET -8.77824 4.35084 1.2192
    CHANNELS 3 Zrotation Xrotation Yrotation
    JOINT rThigh
    {
      OFFSET 0 -1.70687 -2.19456
      CHANNELS 3 Zrotation Xrotation Yrotation
      JOINT rShin
      {
        OFFSET 0 -36.8199 0.73152
        CHANNELS 3 Zrotation Xrotation Yrotation
        JOINT rFoot
        {
          OFFSET 0.73152 -45.1104 -5.12064
          CHANNELS 3 Zrotation Xrotation Yrotation
          End Site
          {
            OFFSET -1.1221 -3.69964 12.103
          }
        }
      }
    }
  }
  JOINT lButtock
  {
    OFFSET 8.77824 4.35084 1.2192
    CHANNELS 3 Zrotation Xrotation Yrotation
    JOINT lThigh
    {
      OFFSET 0 -1.70687 -2.19456
      CHANNELS 3 Zrotation Xrotation Yrotation
      JOINT lShin
      {
        OFFSET 0 -36.8199 0.73152
        CHANNELS 3 Zrotation Xrotation Yrotation
        JOINT lFoot
        {
          OFFSET -0.73152 -45.1104 -5.12064
          CHANNELS 3 Zrotation Xrotation Yrotation
          End Site
          {
            OFFSET 1.1221 -3.69964 12.103
          }
        }
      }
    }
  }
}
MOTION
Frames:	6
Frame Time:	0.00833333
0.411791 82.0365 -68.3696 8.7592 5.48 10.0373 -11.155 9.17357 -3.67732 6.3708 -6.12887 -0.915383 4.29903 -3.17174 0.0791087 -7.18028 -6.60423 -1.69105 -0.0 0.0 0.0 -0.0 0.0 0.0 -5.55079e-14 -4.36036e-13 -1.5325e-14 76.0998 0.103018 -15.5094 -7.7957 -2.90681 13.7265 -0.0808993 8.37425 1.18464 -1.14004e-09 -2.16946e-09 4.56878e-09 -1.93834e-09 -3.73281e-09 7.91034e-09 -1.14004e-09 -2.16946e-09 4.56877e-09 7.73091 5.47488 0.417314 -1.14004e-09 -2.16946e-09 4.56878e-09 2.90554 0.965183 0.102902 -1.14004e-09 -2.16946e-09 4.56878e-09 10.2786 0.731801 0.0259123 -1.14005e-09 -2.16946e-09 4.56879e-09 2.22167 -0.733487 -0.20892 -5.55605e-14 -4.36032e-13 -1.55704e-14 -66.6882 31.4847 -21.2663 17.9503 -10.6371 -33.8973 0.322774 -15.9463 2.30153 -9.34676e-10 -4.37956e-09 4.39586e-10 -1.63231e-09 -7.6114e-09 7.52618e-10 -9.34679e-10 -4.37956e-09 4.39609e-10 -7.73091 5.47488 -0.417314 -9.34674e-10 -4.37955e-09 4.39589e-10 -2.90554 0.965183 -0.102902 -9.34679e-10 -4.37955e-09 4.39586e-10 -10.2786 0.731801 -0.0259123 -9.34672e-10 -4.37955e-09 4.3958e-10 -2.22167 -0.733487 0.20892 -2.03217e-16 0.0 -3.88251e-19 -20.3144 -50.0124 -17.8607 -0.241881 33.6188 0.487452 -3.14157 -2.52722 -17.0149 2.03217e-16 0.0 3.88251e-19 -11.6562 6.56818 2.58217 -0.0259834 6.0431 -0.351742 2.46864 -5.8772 14.0118
0.410853 82.12 -66.8687 8.6418 5.843 10.0944 -11.0322 8.99141 -4.13429 6.39727 -6.01147 -1.04317 4.29733 -3.25391 0.117849 -7.13222 -6.56414 -1.61435 -0.0 0.0 0.0 -0.0 0.0 0.0 1.09259e-13 -4.05858e-13 1.35849e-13 75.8055 -1.49919 -16.2826 -7.48727 -2.74987 13.1649 -0.128962 10.3341 1.46804 -2.843e-09 -1.80587e-09 4.08279e-09 -4.87651e-09 -3.09517e-09 7.08559e-09 -2.843e-09 -1.80587e-09 4.08278e-09 7.73091 5.47488 0.417314 -2.84301e-09 -1.80587e-09 4.08279e-09 2.90554 0.965183 0.102902 -2.843e-09 -1.80587e-09 4.08279e-09 10.2786 0.731801 0.0259123 -2.84301e-09 -1.80587e-09 4.0828e-09 2.22167 -0.733487 -0.20892 1.09227e-13 -4.05854e-13 1.35602e-13 -65.9869 31.4356 -21.9653 18.4617 -11.1951 -35.0561 0.33018 -16.1284 2.32921 -2.64496e-09 -7.13148e-09 8.37393e-10 -4.58899e-09 -1.23788e-08 1.4204e-09 -2.64496e-09 -7.13148e-09 8.37414e-10 -7.73091 5.47488 -0.417314 -2.64496e-09 -7.13147e-09 8.37394e-10 -2.90554 0.965183 -0.102902 -2.64496e-09 -7.13147e-09 8.3739e-10 -10.2786 0.731801 -0.0259123 -2.64495e-09 -7.13147e-09 8.37385e-10 -2.22167 -0.733487 0.20892 -2.03217e-16 0.0 -3.88251e-19 -19.7834 -49.8309 -17.3131 -0.208427 31.4601 0.46115 -3.05434 -2.50813 -16.7494 2.03217e-16 0.0 3.88251e-19 -11.4013 8.97831 2.29423 -0.0312058 3.22122 -0.313433 1.95251 -4.33774 13.5021
0.405556 82.194 -65.3426 8.5034 6.2394 10.1094 -10.8589 8.84929 -4.56188 6.42862 -5.89707 -1.16244 4.30689 -3.33039 0.158267 -7.15366 -6.52 -1.54134 -0.0 0.0 0.0 -0.0 0.0 0.0 2.12072e-13 -3.53043e-13 2.58519e-13 75.4644 -3.10006 -17.052 -7.20839 -2.60997 12.6605 -0.184204 12.1389 1.73226 -3.75895e-09 -1.22471e-09 3.44446e-09 -6.45908e-09 -2.08609e-09 5.99034e-09 -3.75895e-09 -1.22471e-09 3.44445e-09 7.73091 5.47488 0.417314 -3.75895e-09 -1.22471e-09 3.44446e-09 2.90554 0.965183 0.102902 -3.75895e-09 -1.22471e-09 3.44446e-09 10.2786 0.731801 0.0259123 -3.75896e-09 -1.22471e-09 3.44446e-09 2.22167 -0.733487 -0.20892 2.12049e-13 -3.5304e-13 2.58271e-13 -65.3469 31.3892 -22.6007 18.9347 -11.7282 -36.1525 0.337642 -16.3066 2.35636 -3.73752e-09 -8.85363e-09 1.02011e-09 -6.47588e-09 -1.53583e-08 1.72305e-09 -3.73752e-09 -8.85363e-09 1.02012e-09 -7.73091 5.47488 -0.417314 -3.73752e-09 -8.85363e-09 1.02011e-09 -2.90554 0.965183 -0.102902 -3.73752e-09 -8.85363e-09 1.0201e-09 -10.2786 0.731801 -0.0259123 -3.73752e-09 -8.85362e-09 1.0201e-09 -2.22167 -0.733487 0.20892 -2.03217e-16 0.0 -3.88251e-19 -19.1739 -49.5862 -16.6613 -0.184163 29.7687 0.443714 -3.02894 -2.68451 -16.4556 2.03217e-16 0.0 3.88251e-19 -11.0369 10.9523 2.01977 -0.0324004 1.26267 -0.286547 1.53284 -2.99565 12.9754
0.384909 82.2001 -63.834 8.3432 6.6644 10.0836 -10.6201 8.76375 -4.97394 6.46914 -5.78569 -1.27718 4.33934 -3.41097 0.20599 -7.27381 -6.4717 -1.46723 -0.0 0.0 0.0 -0.0 0.0 0.0 2.24277e-13 -2.53117e-13 3.58805e-13 75.0745 -4.68491 -17.81 -6.96697 -2.49137 12.2252 -0.239006 13.7295 1.96793 -3.47574e-09 -1.30214e-10 2.48153e-09 -5.97666e-09 -1.96731e-10 4.32299e-09 -3.47573e-09 -1.30214e-10 2.48153e-09 7.73091 5.47488 0.417314 -3.47574e-09 -1.30216e-10 2.48154e-09 2.90554 0.965183 0.102902 -3.47573e-09 -1.30218e-10 2.48154e-09 10.2786 0.731801 0.0259123 -3.47574e-09 -1.30217e-10 2.48154e-09 2.22167 -0.733487 -0.20892 2.24248e-13 -2.53113e-13 3.5856e-13 -64.7601 31.3392 -23.184 19.3799 -12.2506 -37.1939 0.345365 -16.4846 2.38357 -3.99479e-09 -9.22869e-09 8.64868e-10 -6.91522e-09 -1.59966e-08 1.4503e-09 -3.99479e-09 -9.22869e-09 8.64885e-10 -7.73091 5.47488 -0.417314 -3.99478e-09 -9.22869e-09 8.64868e-10 -2.90554 0.965183 -0.102902 -3.99479e-09 -9.22869e-09 8.64863e-10 -10.2786 0.731801 -0.0259123 -3.99478e-09 -9.22869e-09 8.64857e-10 -2.22167 -0.733487 0.20892 -2.03217e-16 0.0 -3.88251e-19 -18.4824 -49.2843 -15.8585 -0.168998 28.619 0.437518 -3.1016 -3.17245 -16.1625 2.03217e-16 0.0 3.88251e-19 -10.5563 12.4368 1.74668 -0.0321528 0.286387 -0.272618 1.23022 -1.9281 12.4462
0.348295 82.1996 -62.281 8.1593 7.0801 9.9975 -10.3238 8.72166 -5.38823 6.51198 -5.67292 -1.39298 4.38819 -3.49612 0.260197 -7.47006 -6.41988 -1.39026 -0.0 0.0 0.0 -0.0 0.0 0.0 1.81895e-13 -1.13806e-13 4.53816e-13 74.6308 -6.27999 -18.5613 -6.7544 -2.38995 11.8414 -0.294122 15.2026 2.18902 -2.40946e-09 1.34924e-09 1.24414e-09 -4.14617e-09 2.35344e-09 2.17438e-09 -2.40946e-09 1.34924e-09 1.24413e-09 7.73091 5.47488 0.417314 -2.40946e-09 1.34923e-09 1.24415e-09 2.90554 0.965183 0.102902 -2.40946e-09 1.34923e-09 1.24414e-09 10.2786 0.731801 0.0259123 -2.40947e-09 1.34923e-09 1.24415e-09 2.22167 -0.733487 -0.20892 1.81849e-13 -1.13802e-13 4.53577e-13 -64.2292 31.2728 -23.7031 19.8026 -12.7677 -38.1936 0.352142 -16.64 2.40737 -3.73589e-09 -8.78498e-09 4.85633e-10 -6.45965e-09 -1.5211e-08 7.95586e-10 -3.7359e-09 -8.78498e-09 4.85648e-10 -7.73091 5.47488 -0.417314 -3.73589e-09 -8.78498e-09 4.85634e-10 -2.90554 0.965183 -0.102902 -3.7359e-09 -8.78498e-09 4.8563e-10 -10.2786 0.731801 -0.0259123 -3.73589e-09 -8.78497e-09 4.85621e-10 -2.22167 -0.733487 0.20892 -2.03217e-16 0.0 -3.88251e-19 -17.7436 -48.8999 -14.9432 -0.159234 27.9124 0.4415 -3.24478 -3.90997 -15.8557 2.03217e-16 0.0 3.88251e-19 -9.98054 13.5952 1.4463 -0.0323041 -0.0237033 -0.267289 0.997787 -1.00577 11.8958
0.299161 82.1929 -60.6812 7.9318 7.4684 9.8523 -9.99392 8.69577 -5.76081 6.55237 -5.56205 -1.49667 4.43217 -3.56347 0.308841 -7.69366 -6.36436 -1.32255 -0.0 0.0 0.0 -0.0 0.0 0.0 1.22381e-13 1.56153e-14 5.16952e-13 74.1423 -7.89605 -19.327 -6.56256 -2.30036 11.495 -0.351852 16.6187 2.40431 -1.17539e-09 2.64445e-09 8.22427e-11 -2.02605e-09 4.58411e-09 1.54996e-10 -1.17539e-09 2.64445e-09 8.22337e-11 7.73091 5.47488 0.417314 -1.17539e-09 2.64445e-09 8.22505e-11 2.90554 0.965183 0.102902 -1.17539e-09 2.64445e-09 8.22483e-11 10.2786 0.731801 0.0259123 -1.1754e-09 2.64445e-09 8.22516e-11 2.22167 -0.733487 -0.20892 1.22313e-13 1.56187e-14 5.16714e-13 -63.7706 31.2175 -24.1419 20.1866 -13.2517 -39.1232 0.358334 -16.7812 2.429 -3.21104e-09 -7.84023e-09 7.33624e-11 -5.54463e-09 -1.35584e-08 8.69227e-11 -3.21104e-09 -7.84023e-09 7.33762e-11 -7.73091 5.47488 -0.417314 -3.21104e-09 -7.84024e-09 7.33645e-11 -2.90554 0.965183 -0.102902 -3.21104e-09 -7.84024e-09 7.3361e-11 -10.2786 0.731801 -0.0259123 -3.21103e-09 -7.84023e-09 7.33493e-11 -2.22167 -0.733487 0.20892 -2.03217e-16 0.0 -3.88251e-19 -16.9653 -48.4292 -14.0115 -0.153892 27.5556 0.447957 -3.38306 -4.68643 -15.4835 2.03217e-16 0.0 3.88251e-19 -9.33615 14.4238 1.16403 -0.032278 0.3019 -0.268581 0.810097 -0.156111 11.2909
